<?xml version="1.0" encoding="UTF-8"?>
<svg id="Capa_1" xmlns="http://www.w3.org/2000/svg" version="1.1" viewBox="0 0 673.9 296.25">
  <!-- Generator: Adobe Illustrator 30.4.0, SVG Export Plug-In . SVG Version: 2.1.4 Build 226)  -->
  <g id="MybNw5.tif">
    <g>
      <path d="M192.47,151.54l.03,66.88-131.54.06.07-131.38,69.31-.02,15.5,2.5c27.55,8.53,45.35,32.81,46.62,61.96Z"/>
      <path d="M263.5,217.48c-28.25-3.06-49.77-23.64-55.53-49.95-2.86-10.86-3.66-20.05.05-30.51,6.49-29,31.59-49.66,61.38-49.69l68.39-.05.16,131.27-74.46-1.06Z"/>
      <path d="M564.62,172.64l35.72,17.96c-17.14,23.87-44.79,33.39-73.05,26.63-24.5-5.86-45.68-28.44-49.31-54.47-5.01-36,17.04-67.32,52.25-75.91,22.02-5.37,45.3,2.13,61.37,17.86,16.22,15.88,23.39,39.04,19.35,61.44l-56.57.27c2.08,1.51,7.55,4.86,10.26,6.22Z"/>
      <path d="M428.71,86.99l57.68.66-70.63,132.44-70.78-132.32,58.03-.55c4.35,8.01,7.49,16.43,13.06,25.18l12.64-25.41Z"/>
    </g>
  </g>
</svg>